<svg xmlns="http://www.w3.org/2000/svg" viewBox="0 0 112.2 112.2" fill="currentColor">
  <path d="M56.1,0C40.85,0,39.07.07,33.08.35A40.89,40.89,0,0,0,19.52,3,27.21,27.21,0,0,0,9.69,9.69,27.21,27.21,0,0,0,3,19.52,40.89,40.89,0,0,0,.35,33.08C.07,39.07,0,40.85,0,56.1s.07,17,.35,23A40.89,40.89,0,0,0,3,92.68a27.21,27.21,0,0,0,6.66,9.83,27.21,27.21,0,0,0,9.83,6.66,40.89,40.89,0,0,0,13.56,2.68c6,.28,7.75.35,23,.35s17-.07,23-.35a40.89,40.89,0,0,0,13.56-2.68,28.39,28.39,0,0,0,16.49-16.49,40.89,40.89,0,0,0,2.68-13.56c.28-6,.35-7.75.35-23s-.07-17-.35-23a40.89,40.89,0,0,0-2.68-13.56A27.21,27.21,0,0,0,102.51,9.69,27.21,27.21,0,0,0,92.68,3,40.89,40.89,0,0,0,79.12.35C73.13.07,71.35,0,56.1,0Zm0,10.11c15,0,16.75.06,22.67.33a31,31,0,0,1,10.42,1.93,17.43,17.43,0,0,1,6.46,4.2,17.43,17.43,0,0,1,4.2,6.46,31,31,0,0,1,1.93,10.42c.27,5.92.33,7.69.33,22.67s-.06,16.75-.33,22.67a31,31,0,0,1-1.93,10.42,18.63,18.63,0,0,1-10.66,10.66,31,31,0,0,1-10.42,1.93c-5.91.27-7.68.33-22.67.33s-16.76-.06-22.67-.33a31,31,0,0,1-10.42-1.93,17.43,17.43,0,0,1-6.46-4.2,17.43,17.43,0,0,1-4.2-6.46A31,31,0,0,1,10.44,78.78c-.27-5.92-.33-7.69-.33-22.67s.06-16.75.33-22.67a31,31,0,0,1,1.93-10.42,17.43,17.43,0,0,1,4.2-6.46,17.43,17.43,0,0,1,6.46-4.2,31,31,0,0,1,10.42-1.93c5.92-.27,7.69-.33,22.67-.33Z"/>
  <path d="M56.1,27.33A28.77,28.77,0,1,0,84.87,56.1,28.77,28.77,0,0,0,56.1,27.33Zm0,47.43A18.67,18.67,0,1,1,74.76,56.1,18.67,18.67,0,0,1,56.1,74.76Z"/>
  <circle cx="86.02" cy="26.18" r="6.72"/>
</svg>
